# xmcd CD database file
#
# Track frame offsets:
#	150
#	16336
#	31214
#	46641
#	60722
#	85159
#	93434
#	133175
#	141976
#	151743
#	162868
#	172334
#	201095
#	213466
#	226706
#	232544
#	247551
#	253896
#	260077
#	280021
#	298845
#	308392
#	327449
#	333868
#	341794
#
# Disc length: 4720 seconds
#
# Revision: 0
# Processed by: cddbd v1.5.2PL0 Copyright (c) Steve Scherf et al.
# Submitted via: CDex 1.81
#
DISCID=58126e19
DTITLE=Armand Coeck - Jan Depreter - Legend
DYEAR=2011
DGENRE=Blues
TTITLE0=Legende
TTITLE1=VAlse
TTITLE2=Danza India
TTITLE3=Las Golondrinas
TTITLE4=Hymn to Egypt
TTITLE5=Valse Lente II
TTITLE6=Constellations
TTITLE7=Valse Lente I
TTITLE8=Study I
TTITLE9=Lamento
TTITLE10=La Paraguayita
TTITLE11=Le tombeau de Villa-Lobos
TTITLE12=Mayflowers
TTITLE13=Nebelheim
TTITLE14=Ductia
TTITLE15=Nocturne 1
TTITLE16=Nocturne 2
TTITLE17=Nocturen 3
TTITLE18=Evocation
TTITLE19=Danse de la Sibylle
TTITLE20=Luna Guarani
TTITLE21=Requiem
TTITLE22=Amapolita morada
TTITLE23=Pastorela
TTITLE24=Angelica
EXTD=YEAR: 2011
EXTT0=
EXTT1=
EXTT2=
EXTT3=
EXTT4=
EXTT5=
EXTT6=
EXTT7=
EXTT8=
EXTT9=
EXTT10=
EXTT11=
EXTT12=
EXTT13=
EXTT14=
EXTT15=
EXTT16=
EXTT17=
EXTT18=
EXTT19=
EXTT20=
EXTT21=
EXTT22=
EXTT23=
EXTT24=
PLAYORDER=
